<svg xmlns="http://www.w3.org/2000/svg" xmlns:xlink="http://www.w3.org/1999/xlink" xmlns:svgjs="http://svgjs.com/svgjs" version="1.1" width="1662.624979019165" height="1662.624979019165"><g transform="scale(5) translate(30, 30)"> <defs id="SvgjsDefs1506"></defs><g xmlns:name="main_text" id="SvgjsG1507" rel="mainfill" name="main_text" transform="translate(27.157494068145752,-79.74749660491943)" fill="#ffffff" style="fill: #ffffff"><path d="M46.56 240C46.75 240 47.07 239.68 47.14 238.64C47.20 238.06 47.40 229.96 47.59 227.24L47.66 225.82C47.66 225.63 46.75 225.50 46.56 225.50C46.30 225.50 45.71 225.63 45.71 225.82L45.52 227.57C45.13 231.13 38.79 238.06 31.47 238.06L22.27 238.06L22.27 215.07L29.14 215.07C31.08 215.07 32.89 220.06 32.89 222.13L32.89 224.07C32.89 224.27 33.80 224.33 33.99 224.33C34.25 224.33 34.84 224.27 34.84 224.07L34.84 204.06C34.84 203.93 34.25 203.80 33.99 203.80C33.80 203.80 32.89 203.93 32.89 204.06L32.89 206.07C32.89 208.14 31.08 213.13 29.14 213.13L22.27 213.13L22.27 194.03L30.17 194.03C37.55 194.03 42.61 198.75 43.06 205.36L43.12 206.27C43.12 206.46 43.97 206.59 44.22 206.59C44.42 206.59 45.07 206.46 45.07 206.27L45.00 204.84C44.81 202.12 44.48 194.35 44.48 193.12C44.48 192.86 43.97 192.09 43.77 192.09L4.47 192.09C4.08 192.09 3.89 192.54 3.89 193.06C3.89 193.57 4.08 194.03 4.47 194.03L9.32 194.03L9.32 238.06L4.47 238.06C4.08 238.06 3.89 238.51 3.89 239.03C3.89 239.55 4.08 240 4.47 240ZM54.71 192.09C54.33 192.09 54.13 192.54 54.13 193.06C54.13 193.57 54.33 194.03 54.71 194.03L59.57 194.03L59.57 238.06L54.71 238.06C54.33 238.06 54.13 238.51 54.13 239.03C54.13 239.55 54.33 240 54.71 240L79.00 240C94.34 240 100.04 233.33 100.04 226.60C100.04 219.93 94.34 213.19 84.69 213.19L84.69 212.81C93.30 211.96 97.45 208.21 97.45 202.32C97.45 196.49 92.14 192.09 80.87 192.09ZM78.28 238.06C76.21 238.06 74.07 238.06 72.52 237.99L72.52 214.49L78.02 214.49C83.92 214.49 86.44 220.70 86.44 226.79C86.44 232.49 84.24 238.06 78.28 238.06ZM72.52 194.03L77.64 194.03C82.17 194.03 84.50 198.69 84.50 203.29C84.50 207.95 82.17 212.55 77.31 212.55L72.52 212.55ZM126.33 216.24L134.16 216.24C138.37 216.24 139.92 222.26 139.92 227.89C139.92 236.96 145.30 240.65 151.00 240.65C156.76 240.65 162.20 236.89 162.20 231.13C162.20 230.61 161.75 230.35 161.23 230.35C160.77 230.35 160.26 230.61 160.26 231.13C160.26 234.17 158.44 235.79 156.63 235.79C154.82 235.79 153.00 234.17 153.00 230.74C153.00 219.93 148.86 215.46 141.48 215.07L141.48 214.81C150.61 213.71 155.08 208.53 155.08 203.42C155.08 197.72 149.57 192.09 138.95 192.09L108.52 192.09C108.13 192.09 107.94 192.54 107.94 193.06C107.94 193.57 108.13 194.03 108.52 194.03L113.38 194.03L113.38 238.06L108.52 238.06C108.13 238.06 107.94 238.51 107.94 239.03C107.94 239.55 108.13 240 108.52 240L131.18 240C131.57 240 131.77 239.55 131.77 239.03C131.77 238.51 131.57 238.06 131.18 238.06L126.33 238.06ZM133.71 194.03C138.89 194.03 141.54 199.08 141.54 204.13C141.54 209.05 139.02 214.29 133.84 214.29L126.33 214.29L126.33 194.03ZM190.82 191.70C190.69 191.44 189.85 191.37 189.59 191.37C189.46 191.37 188.49 191.50 188.42 191.70L169.90 238.38L166.02 238.38C165.63 238.38 165.44 238.83 165.44 239.35C165.44 239.87 165.63 240.32 166.02 240.32L176.90 240.32C177.29 240.32 177.48 239.87 177.48 239.35C177.48 238.83 177.29 238.38 176.90 238.38L172.04 238.38L176.06 228.34L191.72 228.34L195.80 238.38L190.62 238.38C190.24 238.38 190.04 238.83 190.04 239.35C190.04 239.87 190.24 240.32 190.62 240.32L213.74 240.32C214.13 240.32 214.32 239.87 214.32 239.35C214.32 238.83 214.13 238.38 213.74 238.38L209.92 238.38ZM183.83 209.11L190.88 226.40L176.83 226.40Z" fill="#ffffff" style="fill: #ffffff"></path></g><g xmlns:name="outlineContainer_mainfill" id="SvgjsG1508" transform="translate(0,0) scale(5.5)" rel="mainfill" name="outline_container" fill="#ffffff" style="fill: #ffffff"><g fill="#ffffff" style="fill: #ffffff">    <polygon points="2.42 24.37 1.34 22.96 0.13 24.25 0 24.14 1.35 22.7 2.55 24.27 2.42 24.37"></polygon>
    <polygon points="2.47 23.2 1.47 21.74 0.19 22.96 0.07 22.84 1.5 21.48 2.61 23.11 2.47 23.2"></polygon>
    <polygon points="2.58 22.04 1.66 20.52 0.32 21.68 0.2 21.55 1.7 20.26 2.73 21.95 2.58 22.04"></polygon>
    <polygon points="2.75 20.88 1.91 19.32 0.51 20.4 0.41 20.27 1.97 19.06 2.91 20.8 2.75 20.88"></polygon>
    <polygon points="2.99 19.73 2.23 18.13 0.77 19.14 0.67 19 2.3 17.87 3.14 19.66 2.99 19.73"></polygon>
    <polygon points="3.28 18.6 2.61 16.96 1.1 17.89 1.01 17.75 2.69 16.71 3.44 18.54 3.28 18.6"></polygon>
    <polygon points="3.63 17.48 3.05 15.81 1.49 16.66 1.41 16.51 3.14 15.56 3.8 17.43 3.63 17.48"></polygon>
    <polygon points="4.04 16.39 3.55 14.69 1.95 15.46 1.87 15.3 3.66 14.44 4.21 16.34 4.04 16.39"></polygon>
    <polygon points="4.51 15.31 4.1 13.59 2.47 14.27 2.4 14.11 4.22 13.35 4.68 15.27 4.51 15.31"></polygon>
    <polygon points="5.04 14.27 4.72 12.52 3.05 13.12 2.99 12.96 4.85 12.29 5.21 14.24 5.04 14.27"></polygon>
    <polygon points="5.61 13.25 5.39 11.49 3.69 12 3.64 11.83 5.53 11.27 5.78 13.23 5.61 13.25"></polygon>
    <polygon points="6.24 12.26 6.11 10.49 4.39 10.91 4.34 10.75 6.26 10.28 6.41 12.25 6.24 12.26"></polygon>
    <polygon points="6.92 11.31 6.88 9.54 5.14 9.87 5.11 9.7 7.05 9.33 7.09 11.3 6.92 11.31"></polygon>
    <polygon points="7.82 10.4 7.65 10.39 7.7 8.62 5.95 8.86 5.92 8.69 7.88 8.42 7.82 10.4"></polygon>
    <polygon points="8.6 9.53 8.43 9.52 8.57 7.75 6.8 7.89 6.79 7.72 8.76 7.56 8.6 9.53"></polygon>
    <polygon points="9.42 8.7 9.25 8.68 9.48 6.92 7.71 6.98 7.71 6.8 9.68 6.75 9.42 8.7"></polygon>
    <polygon points="10.28 7.92 10.11 7.89 10.44 6.15 8.67 6.11 8.67 5.94 10.65 5.98 10.28 7.92"></polygon>
    <polygon points="11.18 7.19 11.02 7.15 11.43 5.42 9.67 5.29 9.68 5.12 11.65 5.27 11.18 7.19"></polygon>
    <polygon points="12.12 6.5 11.96 6.45 12.46 4.75 10.71 4.53 10.73 4.36 12.69 4.61 12.12 6.5"></polygon>
    <polygon points="13.1 5.86 12.93 5.8 13.53 4.14 11.79 3.82 11.82 3.65 13.76 4 13.1 5.86"></polygon>
    <polygon points="14.1 5.28 13.94 5.21 14.63 3.58 12.9 3.17 12.94 3 14.86 3.46 14.1 5.28"></polygon>
    <polygon points="15.14 4.75 14.98 4.67 15.75 3.07 14.05 2.58 14.1 2.41 15.99 2.96 15.14 4.75"></polygon>
    <polygon points="16.2 4.27 16.05 4.19 16.9 2.63 15.22 2.04 15.28 1.88 17.15 2.54 16.2 4.27"></polygon>
    <polygon points="17.28 3.85 17.14 3.76 18.07 2.25 16.43 1.58 16.49 1.42 18.32 2.17 17.28 3.85"></polygon>
    <polygon points="18.39 3.48 18.25 3.39 19.25 1.93 17.65 1.17 17.73 1.01 19.51 1.86 18.39 3.48"></polygon>
    <polygon points="19.51 3.18 19.37 3.07 20.46 1.67 18.9 0.83 18.98 0.68 20.72 1.62 19.51 3.18"></polygon>
    <polygon points="20.65 2.93 20.52 2.82 21.67 1.48 20.16 0.56 20.25 0.41 21.94 1.44 20.65 2.93"></polygon>
    <polygon points="21.8 2.75 21.67 2.63 22.9 1.35 21.43 0.35 21.53 0.2 23.16 1.32 21.8 2.75"></polygon>
    <polygon points="22.95 2.62 22.84 2.5 24.13 1.28 22.71 0.21 22.82 0.07 24.39 1.27 22.95 2.62"></polygon>
    <polygon points="24.11 2.56 24 2.43 25.36 1.28 24 0.13 24.11 0 25.62 1.28 24.11 2.56"></polygon>
    <polygon points="25.28 2.55 25.17 2.42 26.58 1.34 25.3 0.13 25.41 0 26.85 1.36 25.28 2.55"></polygon>
    <polygon points="26.44 2.61 26.34 2.47 27.81 1.47 26.58 0.19 26.71 0.07 28.07 1.5 26.44 2.61"></polygon>
    <polygon points="27.6 2.73 27.51 2.58 29.02 1.66 27.87 0.32 28 0.2 29.29 1.7 27.6 2.73"></polygon>
    <polygon points="28.75 2.91 28.67 2.75 30.23 1.91 29.14 0.51 29.28 0.41 30.49 1.97 28.75 2.91"></polygon>
    <polygon points="29.89 3.14 29.81 2.99 31.42 2.23 30.41 0.77 30.55 0.67 31.67 2.3 29.89 3.14"></polygon>
    <polygon points="31.01 3.44 30.95 3.28 32.59 2.61 31.66 1.1 31.8 1.01 32.84 2.69 31.01 3.44"></polygon>
    <polygon points="32.12 3.8 32.06 3.63 33.74 3.05 32.89 1.49 33.04 1.41 33.99 3.14 32.12 3.8"></polygon>
    <polygon points="33.21 4.21 33.16 4.04 34.86 3.55 34.09 1.95 34.25 1.88 35.1 3.65 33.21 4.21"></polygon>
    <polygon points="34.27 4.68 34.23 4.51 35.96 4.1 35.27 2.47 35.44 2.4 36.2 4.22 34.27 4.68"></polygon>
    <polygon points="35.31 5.2 35.28 5.03 37.02 4.72 36.43 3.05 36.59 2.99 37.26 4.85 35.31 5.2"></polygon>
    <polygon points="36.32 5.78 36.3 5.61 38.06 5.39 37.55 3.69 37.71 3.64 38.28 5.53 36.32 5.78"></polygon>
    <polygon points="37.3 6.41 37.29 6.24 39.05 6.11 38.63 4.39 38.8 4.34 39.27 6.26 37.3 6.41"></polygon>
    <polygon points="38.24 7.09 38.24 6.92 40.01 6.88 39.68 5.14 39.85 5.11 40.22 7.05 38.24 7.09"></polygon>
    <polygon points="41.13 7.88 39.15 7.82 39.16 7.65 40.93 7.7 40.69 5.95 40.86 5.92 41.13 7.88"></polygon>
    <polygon points="41.99 8.76 40.02 8.6 40.03 8.43 41.8 8.57 41.65 6.8 41.83 6.79 41.99 8.76"></polygon>
    <polygon points="42.8 9.68 40.84 9.42 40.87 9.25 42.62 9.48 42.57 7.71 42.74 7.71 42.8 9.68"></polygon>
    <polygon points="43.57 10.65 41.63 10.28 41.66 10.11 43.4 10.44 43.44 8.67 43.61 8.67 43.57 10.65"></polygon>
    <polygon points="44.28 11.65 42.36 11.18 42.4 11.02 44.12 11.43 44.26 9.67 44.43 9.68 44.28 11.65"></polygon>
    <polygon points="44.94 12.69 43.05 12.12 43.1 11.96 44.8 12.46 45.02 10.71 45.19 10.73 44.94 12.69"></polygon>
    <polygon points="45.55 13.76 43.69 13.1 43.74 12.93 45.41 13.53 45.73 11.79 45.9 11.82 45.55 13.76"></polygon>
    <polygon points="46.09 14.86 44.27 14.1 44.34 13.94 45.97 14.63 46.38 12.9 46.55 12.94 46.09 14.86"></polygon>
    <polygon points="46.58 15.99 44.8 15.14 44.88 14.98 46.47 15.75 46.97 14.05 47.14 14.1 46.58 15.99"></polygon>
    <polygon points="47.01 17.15 45.28 16.2 45.36 16.05 46.92 16.9 47.5 15.22 47.67 15.28 47.01 17.15"></polygon>
    <polygon points="47.38 18.32 45.7 17.28 45.79 17.14 47.3 18.07 47.97 16.43 48.13 16.49 47.38 18.32"></polygon>
    <polygon points="47.69 19.51 46.06 18.39 46.16 18.25 47.62 19.25 48.38 17.65 48.53 17.73 47.69 19.51"></polygon>
    <polygon points="47.93 20.72 46.37 19.51 46.47 19.37 47.88 20.46 48.72 18.9 48.87 18.98 47.93 20.72"></polygon>
    <polygon points="48.11 21.94 46.62 20.65 46.73 20.52 48.07 21.67 48.99 20.16 49.14 20.25 48.11 21.94"></polygon>
    <polygon points="48.23 23.16 46.8 21.8 46.92 21.67 48.2 22.9 49.2 21.43 49.34 21.53 48.23 23.16"></polygon>
    <polygon points="48.28 24.39 46.93 22.95 47.05 22.84 48.27 24.13 49.34 22.71 49.48 22.82 48.28 24.39"></polygon>
    <polygon points="48.27 25.62 46.99 24.12 47.12 24 48.27 25.36 49.42 24 49.55 24.12 48.27 25.62"></polygon>
    <polygon points="48.19 26.85 46.99 25.28 47.13 25.18 48.21 26.58 49.42 25.3 49.55 25.41 48.19 26.85"></polygon>
    <polygon points="48.05 28.07 46.94 26.44 47.08 26.34 48.08 27.81 49.36 26.58 49.48 26.71 48.05 28.07"></polygon>
    <polygon points="47.85 29.29 46.82 27.6 46.97 27.51 47.89 29.02 49.23 27.87 49.34 28 47.85 29.29"></polygon>
    <polygon points="47.58 30.49 46.64 28.75 46.79 28.67 47.63 30.23 49.04 29.14 49.14 29.28 47.58 30.49"></polygon>
    <polygon points="47.25 31.67 46.4 29.89 46.56 29.82 47.32 31.42 48.78 30.41 48.87 30.55 47.25 31.67"></polygon>
    <polygon points="46.86 32.84 46.11 31.01 46.27 30.95 46.94 32.59 48.45 31.66 48.54 31.8 46.86 32.84"></polygon>
    <polygon points="46.41 33.99 45.75 32.12 45.91 32.06 46.5 33.74 48.05 32.89 48.14 33.04 46.41 33.99"></polygon>
    <polygon points="45.89 35.1 45.34 33.21 45.5 33.16 46 34.86 47.6 34.09 47.67 34.25 45.89 35.1"></polygon>
    <polygon points="45.32 36.2 44.87 34.27 45.04 34.23 45.45 35.96 47.08 35.27 47.15 35.43 45.32 36.2"></polygon>
    <polygon points="44.7 37.26 44.34 35.31 44.51 35.28 44.83 37.02 46.5 36.43 46.56 36.59 44.7 37.26"></polygon>
    <polygon points="44.02 38.28 43.77 36.32 43.94 36.3 44.16 38.06 45.86 37.55 45.91 37.71 44.02 38.28"></polygon>
    <polygon points="43.28 39.27 43.13 37.3 43.31 37.29 43.44 39.05 45.16 38.63 45.2 38.8 43.28 39.27"></polygon>
    <polygon points="42.5 40.22 42.45 38.24 42.63 38.24 42.67 40.01 44.41 39.68 44.44 39.85 42.5 40.22"></polygon>
    <polygon points="41.67 41.13 41.73 39.15 41.9 39.16 41.85 40.93 43.6 40.69 43.63 40.86 41.67 41.13"></polygon>
    <polygon points="40.79 41.99 40.95 40.02 41.12 40.03 40.98 41.8 42.74 41.65 42.76 41.83 40.79 41.99"></polygon>
    <polygon points="39.87 42.8 40.13 40.84 40.3 40.87 40.06 42.62 41.84 42.57 41.84 42.74 39.87 42.8"></polygon>
    <polygon points="40.88 43.61 38.9 43.57 39.27 41.63 39.44 41.66 39.11 43.4 40.88 43.44 40.88 43.61"></polygon>
    <polygon points="39.87 44.43 37.9 44.28 38.37 42.36 38.53 42.4 38.11 44.12 39.88 44.26 39.87 44.43"></polygon>
    <polygon points="38.82 45.19 36.86 44.94 37.43 43.05 37.59 43.1 37.08 44.8 38.84 45.02 38.82 45.19"></polygon>
    <polygon points="37.73 45.9 35.79 45.55 36.45 43.69 36.62 43.74 36.02 45.41 37.76 45.73 37.73 45.9"></polygon>
    <polygon points="36.61 46.55 34.69 46.09 35.45 44.27 35.61 44.34 34.92 45.97 36.65 46.38 36.61 46.55"></polygon>
    <polygon points="35.45 47.14 33.56 46.58 34.41 44.8 34.57 44.88 33.8 46.47 35.5 46.97 35.45 47.14"></polygon>
    <polygon points="34.27 47.67 32.4 47.01 33.35 45.28 33.5 45.36 32.65 46.92 34.32 47.5 34.27 47.67"></polygon>
    <polygon points="33.06 48.13 31.23 47.38 32.27 45.7 32.41 45.79 31.48 47.3 33.12 47.97 33.06 48.13"></polygon>
    <polygon points="31.82 48.53 30.04 47.69 31.16 46.06 31.3 46.16 30.29 47.62 31.9 48.38 31.82 48.53"></polygon>
    <polygon points="30.57 48.87 28.83 47.93 30.04 46.37 30.17 46.47 29.09 47.88 30.65 48.72 30.57 48.87"></polygon>
    <polygon points="29.3 49.14 27.61 48.11 28.9 46.62 29.03 46.73 27.88 48.07 29.39 48.99 29.3 49.14"></polygon>
    <polygon points="28.02 49.34 26.39 48.23 27.75 46.8 27.88 46.92 26.65 48.2 28.12 49.2 28.02 49.34"></polygon>
    <polygon points="26.73 49.48 25.16 48.28 26.59 46.93 26.71 47.05 25.42 48.27 26.83 49.34 26.73 49.48"></polygon>
    <polygon points="25.43 49.55 23.93 48.27 25.43 46.99 25.54 47.12 24.19 48.27 25.54 49.42 25.43 49.55"></polygon>
    <polygon points="24.14 49.55 22.7 48.19 24.27 46.99 24.37 47.13 22.96 48.21 24.25 49.42 24.14 49.55"></polygon>
    <polygon points="22.84 49.48 21.48 48.05 23.11 46.94 23.2 47.08 21.74 48.08 22.96 49.36 22.84 49.48"></polygon>
    <polygon points="21.55 49.35 20.26 47.85 21.95 46.82 22.04 46.97 20.52 47.89 21.68 49.23 21.55 49.35"></polygon>
    <polygon points="20.27 49.14 19.06 47.58 20.8 46.64 20.88 46.79 19.32 47.63 20.41 49.04 20.27 49.14"></polygon>
    <polygon points="19 48.87 17.87 47.25 19.66 46.4 19.73 46.56 18.13 47.32 19.14 48.78 19 48.87"></polygon>
    <polygon points="17.75 48.54 16.71 46.86 18.54 46.11 18.6 46.27 16.96 46.94 17.89 48.45 17.75 48.54"></polygon>
    <polygon points="16.51 48.14 15.56 46.41 17.43 45.75 17.48 45.91 15.81 46.5 16.66 48.05 16.51 48.14"></polygon>
    <polygon points="15.3 47.67 14.44 45.89 16.34 45.34 16.39 45.5 14.69 46 15.46 47.6 15.3 47.67"></polygon>
    <polygon points="14.11 47.15 13.35 45.32 15.28 44.87 15.31 45.04 13.59 45.45 14.27 47.08 14.11 47.15"></polygon>
    <polygon points="12.96 46.56 12.29 44.7 14.24 44.34 14.27 44.51 12.52 44.83 13.12 46.5 12.96 46.56"></polygon>
    <polygon points="11.83 45.91 11.27 44.02 13.23 43.77 13.25 43.94 11.49 44.16 12 45.86 11.83 45.91"></polygon>
    <polygon points="10.75 45.2 10.28 43.28 12.25 43.13 12.26 43.31 10.49 43.44 10.91 45.16 10.75 45.2"></polygon>
    <polygon points="9.7 44.44 9.33 42.5 11.3 42.45 11.31 42.63 9.54 42.67 9.87 44.41 9.7 44.44"></polygon>
    <polygon points="8.69 43.63 8.42 41.67 10.4 41.73 10.39 41.9 8.62 41.85 8.86 43.6 8.69 43.63"></polygon>
    <polygon points="7.72 42.76 7.56 40.79 9.53 40.95 9.52 41.12 7.75 40.98 7.89 42.74 7.72 42.76"></polygon>
    <polygon points="6.8 41.84 6.75 39.87 8.7 40.13 8.68 40.3 6.92 40.06 6.98 41.84 6.8 41.84"></polygon>
    <polygon points="6.11 40.88 5.94 40.88 5.98 38.9 7.92 39.27 7.89 39.44 6.15 39.11 6.11 40.88"></polygon>
    <polygon points="5.29 39.88 5.12 39.87 5.27 37.9 7.19 38.37 7.15 38.53 5.42 38.11 5.29 39.88"></polygon>
    <polygon points="4.53 38.84 4.36 38.82 4.61 36.86 6.5 37.43 6.45 37.59 4.75 37.08 4.53 38.84"></polygon>
    <polygon points="3.82 37.76 3.65 37.73 4 35.79 5.86 36.45 5.8 36.62 4.14 36.02 3.82 37.76"></polygon>
    <polygon points="3.17 36.65 3 36.61 3.46 34.69 5.28 35.45 5.21 35.61 3.58 34.92 3.17 36.65"></polygon>
    <polygon points="2.58 35.5 2.41 35.45 2.96 33.56 4.75 34.41 4.67 34.57 3.07 33.8 2.58 35.5"></polygon>
    <polygon points="2.04 34.32 1.88 34.27 2.54 32.4 4.27 33.35 4.19 33.5 2.63 32.65 2.04 34.32"></polygon>
    <polygon points="1.58 33.12 1.42 33.06 2.17 31.23 3.85 32.27 3.76 32.41 2.25 31.48 1.58 33.12"></polygon>
    <polygon points="1.17 31.9 1.01 31.82 1.86 30.04 3.48 31.16 3.39 31.3 1.93 30.29 1.17 31.9"></polygon>
    <polygon points="0.83 30.65 0.68 30.57 1.62 28.83 3.18 30.04 3.07 30.17 1.67 29.09 0.83 30.65"></polygon>
    <polygon points="0.56 29.39 0.41 29.3 1.44 27.61 2.93 28.9 2.82 29.03 1.48 27.88 0.56 29.39"></polygon>
    <polygon points="0.35 28.12 0.2 28.02 1.32 26.39 2.75 27.75 2.63 27.88 1.35 26.65 0.35 28.12"></polygon>
    <polygon points="0.21 26.83 0.07 26.73 1.27 25.16 2.62 26.59 2.5 26.71 1.28 25.42 0.21 26.83"></polygon>
    <polygon points="0.13 25.55 0 25.43 1.28 23.93 2.56 25.43 2.42 25.55 1.28 24.19 0.13 25.55"></polygon>
</g></g> </g></svg>
